<?xml version="1.0" encoding="UTF-8" standalone="no"?>
<!-- Created with Inkscape (http://www.inkscape.org/) -->

<svg
   width="1266.7289"
   height="348.69559"
   viewBox="0 0 335.15534 92.25904"
   version="1.1"
   id="svg1"
   xml:space="preserve"
   xmlns="http://www.w3.org/2000/svg"
   xmlns:svg="http://www.w3.org/2000/svg"><defs
     id="defs1" /><g
     id="layer1"
     transform="translate(-164.64121,-88.305101)"><g
       id="g2"
       transform="matrix(0.35277778,0,0,0.35277778,-20.733935,-43.295317)"><g
         id="g185"
         transform="matrix(1.3471819,0,0,1.3471819,-285.09783,-88.30251)"><g
           fill="#000000"
           fill-opacity="1"
           id="g46"
           transform="translate(-21.750002,0.75000145)"
           style="fill:#071426;fill-opacity:1"><g
             transform="translate(606.58498,533.87232)"
             id="g45"
             style="fill:#071426;fill-opacity:1"><g
               id="g44"
               style="fill:#071426;fill-opacity:1"><path
                 d="M 149.9375,-131.375 V 0 h -36.14062 v -15.625 c -5.05469,5.699219 -11.07813,10.054688 -18.07813,13.0625 -7,3.007812 -14.570312,4.515625 -22.703125,4.515625 -17.261719,0 -30.9375,-4.960937 -41.03125,-14.890625 C 21.890625,-22.875 16.84375,-37.609375 16.84375,-57.140625 V -131.375 H 54.9375 v 68.625 c 0,21.15625 8.875,31.734375 26.625,31.734375 9.113281,0 16.4375,-2.96875 21.96875,-8.90625 5.53906,-5.945313 8.3125,-14.78125 8.3125,-26.5 V -131.375 Z m 0,0"
                 id="path44"
                 style="fill:#071426;fill-opacity:1" /></g></g></g><g
           fill="#000000"
           fill-opacity="1"
           id="g49"
           transform="translate(-21.750002,0.75000145)"
           style="fill:#071426;fill-opacity:1"><g
             transform="translate(781.42134,533.87232)"
             id="g48"
             style="fill:#071426;fill-opacity:1"><g
               id="g47"
               style="fill:#071426;fill-opacity:1"><path
                 d="m 146.26562,-65.203125 c 0,0.492187 -0.24609,3.914063 -0.73437,10.265625 h -99.375 c 1.789062,8.136719 6.019531,14.570312 12.6875,19.296875 6.675781,4.71875 14.976562,7.078125 24.90625,7.078125 6.84375,0 12.910156,-1.015625 18.20313,-3.046875 5.28906,-2.039063 10.21093,-5.257813 14.76562,-9.65625 l 20.26562,21.96875 c -12.36718,14.167969 -30.43359,21.25 -54.20312,21.25 -14.8125,0 -27.917969,-2.890625 -39.3125,-8.671875 C 32.070312,-12.5 23.28125,-20.515625 17.09375,-30.765625 10.90625,-41.023438 7.8125,-52.664062 7.8125,-65.6875 c 0,-12.863281 3.050781,-24.460938 9.15625,-34.79688 6.101562,-10.33203 14.484375,-18.39062 25.140625,-24.17187 10.664063,-5.78125 22.59375,-8.67187 35.78125,-8.67187 12.863281,0 24.503905,2.77343 34.921875,8.31249 10.41406,5.53125 18.59375,13.46875 24.53125,23.8125 5.94531,10.335942 8.92187,22.335942 8.92187,36.000005 z M 78.140625,-104.51563 c -8.625,0 -15.871094,2.44532 -21.734375,7.32813 -5.867188,4.886719 -9.449219,11.5625 -10.75,20.03125 H 110.375 c -1.30469,-8.300781 -4.88672,-14.9375 -10.75,-19.90625 -5.855469,-4.96875 -13.015625,-7.45313 -21.484375,-7.45313 z m 0,0"
                 id="path46"
                 style="fill:#071426;fill-opacity:1" /></g></g></g><g
           fill="#000000"
           fill-opacity="1"
           id="g52"
           transform="translate(-21.750002,0.75000145)"
           style="fill:#071426;fill-opacity:1"><g
             transform="translate(942.58335,533.87232)"
             id="g51"
             style="fill:#071426;fill-opacity:1"><g
               id="g50"
               style="fill:#071426;fill-opacity:1"><path
                 d="m 17.578125,-181.1875 h 38.09375 V 0 h -38.09375 z m 0,0"
                 id="path49"
                 style="fill:#071426;fill-opacity:1" /></g></g></g><g
           fill="#000000"
           fill-opacity="1"
           id="g55"
           transform="translate(-21.750002,0.75000145)"
           style="fill:#071426;fill-opacity:1"><g
             transform="translate(1023.1644,533.87232)"
             id="g54"
             style="fill:#071426;fill-opacity:1"><g
               id="g53"
               style="fill:#071426;fill-opacity:1"><path
                 d="m 17.578125,-181.1875 h 38.09375 V 0 h -38.09375 z m 0,0"
                 id="path52"
                 style="fill:#071426;fill-opacity:1" /></g></g></g><g
           fill="#000000"
           fill-opacity="1"
           id="g58"
           transform="translate(-21.750002,0.75000145)"
           style="fill:#071426;fill-opacity:1"><g
             transform="translate(1103.7455,533.87232)"
             id="g57"
             style="fill:#071426;fill-opacity:1"><g
               id="g56"
               style="fill:#071426;fill-opacity:1"><path
                 d="m 17.578125,-131.375 h 38.09375 V 0 h -38.09375 z m 19.0625,-18.3125 c -7,0 -12.699219,-2.03125 -17.09375,-6.09375 -4.398437,-4.07031 -6.59375,-9.125 -6.59375,-15.15625 0,-6.01953 2.195313,-11.0625 6.59375,-15.125 4.394531,-4.07031 10.09375,-6.10937 17.09375,-6.10937 7,0 12.695313,1.95312 17.09375,5.85937 4.394531,3.90625 6.59375,8.79297 6.59375,14.65625 0,6.34375 -2.199219,11.59375 -6.59375,15.75 -4.398437,4.14844 -10.09375,6.21875 -17.09375,6.21875 z m 0,0"
                 id="path55"
                 style="fill:#071426;fill-opacity:1" /></g></g></g><g
           id="g59"
           transform="translate(1162.5766,534.62232)"
           style="fill:#071426;fill-opacity:1"><path
             id="path58"
             d="m 77.057637,-98.278844 20.171568,25.42564 45.130635,-58.521726 h -40.53223 z"
             style="fill:#fc4c0d;fill-opacity:1" /><path
             id="path174"
             d="M 2.686986,-131.37493 51.530736,-66.171807 0.98483753,-4.2099708e-4 H 42.483861 L 72.281712,-40.296807 101.09372,-4.2099708e-4 h 43.21875 L 93.530735,-67.156182 C 76.988554,-88.182462 61.276419,-109.83092 45.422337,-131.37493 Z"
             style="fill:#071426;fill-opacity:1" /></g></g></g></g></svg>
