<?xml version="1.0" encoding="UTF-8" standalone="no"?>
<!-- Created with Inkscape (http://www.inkscape.org/) -->

<svg
   width="1777.9896"
   height="414.44089"
   viewBox="0 0 470.42641 109.65415"
   version="1.1"
   id="svg1"
   xml:space="preserve"
   xmlns="http://www.w3.org/2000/svg"
   xmlns:svg="http://www.w3.org/2000/svg"><defs
     id="defs1"><clipPath
       id="42c7b661bc"><path
         d="m 420.01172,319.64062 h 8.41015 v 6.04688 h -8.41015 z m 0,0"
         clip-rule="nonzero"
         id="path1" /></clipPath><clipPath
       id="2e774e1bb2"><path
         d="m 424.21094,319.64062 c -2.32032,0 -4.19922,1.35547 -4.19922,3.02344 0,1.67188 1.8789,3.02344 4.19922,3.02344 2.3164,0 4.19922,-1.35156 4.19922,-3.02344 0,-1.66797 -1.88282,-3.02344 -4.19922,-3.02344 z m 0,0"
         clip-rule="nonzero"
         id="path2" /></clipPath><clipPath
       id="594c2671c3"><path
         d="M 0.0117188,0.640625 H 8.421875 V 6.6875 H 0.0117188 Z m 0,0"
         clip-rule="nonzero"
         id="path3" /></clipPath><clipPath
       id="b7e992c3a7"><path
         d="m 4.210938,0.640625 c -2.320313,0 -4.1992192,1.355469 -4.1992192,3.023437 0,1.671876 1.8789062,3.023438 4.1992192,3.023438 2.316406,0 4.199218,-1.351562 4.199218,-3.023438 0,-1.667968 -1.882812,-3.023437 -4.199218,-3.023437 z m 0,0"
         clip-rule="nonzero"
         id="path4" /></clipPath><clipPath
       id="9872908dfa"><rect
         x="0"
         width="9"
         y="0"
         height="7"
         id="rect4" /></clipPath><clipPath
       id="363e5f3491"><path
         d="m 317.05078,377.21875 h 13.91797 v 11.67969 h -13.91797 z m 0,0"
         clip-rule="nonzero"
         id="path5" /></clipPath><clipPath
       id="7600b9155b"><path
         d="m 323.99609,377.21875 c -3.83593,0 -6.94531,2.61328 -6.94531,5.83984 0,3.22266 3.10938,5.83985 6.94531,5.83985 3.83985,0 6.94922,-2.61719 6.94922,-5.83985 0,-3.22656 -3.10937,-5.83984 -6.94922,-5.83984 z m 0,0"
         clip-rule="nonzero"
         id="path6" /></clipPath><clipPath
       id="e7b5a8bcc5"><path
         d="M 0.0507812,0.21875 H 13.960938 V 11.898438 H 0.0507812 Z m 0,0"
         clip-rule="nonzero"
         id="path7" /></clipPath><clipPath
       id="6a6c861897"><path
         d="m 6.996094,0.21875 c -3.835938,0 -6.9453128,2.613281 -6.9453128,5.839844 0,3.222656 3.1093748,5.839844 6.9453128,5.839844 3.839844,0 6.949218,-2.617188 6.949218,-5.839844 0,-3.226563 -3.109374,-5.839844 -6.949218,-5.839844 z m 0,0"
         clip-rule="nonzero"
         id="path8" /></clipPath><clipPath
       id="294761ec06"><rect
         x="0"
         width="14"
         y="0"
         height="12"
         id="rect8" /></clipPath><clipPath
       id="9ab9f0cb2e"><path
         d="m 516.38281,377.21875 h 13.91797 v 11.67969 h -13.91797 z m 0,0"
         clip-rule="nonzero"
         id="path9" /></clipPath><clipPath
       id="d2515f5a9a"><path
         d="m 523.33203,377.21875 c -3.83594,0 -6.94922,2.61328 -6.94922,5.83984 0,3.22266 3.11328,5.83985 6.94922,5.83985 3.83594,0 6.94531,-2.61719 6.94531,-5.83985 0,-3.22656 -3.10937,-5.83984 -6.94531,-5.83984 z m 0,0"
         clip-rule="nonzero"
         id="path10" /></clipPath><clipPath
       id="23826a9c17"><path
         d="M 0.382812,0.21875 H 14.300781 V 11.898438 H 0.382812 Z m 0,0"
         clip-rule="nonzero"
         id="path11" /></clipPath><clipPath
       id="35c9fe48d9"><path
         d="m 7.332031,0.21875 c -3.835937,0 -6.949219,2.613281 -6.949219,5.839844 0,3.222656 3.113282,5.839844 6.949219,5.839844 3.835938,0 6.945313,-2.617188 6.945313,-5.839844 0,-3.226563 -3.109375,-5.839844 -6.945313,-5.839844 z m 0,0"
         clip-rule="nonzero"
         id="path12" /></clipPath><clipPath
       id="cfd81cc7ef"><rect
         x="0"
         width="15"
         y="0"
         height="12"
         id="rect12" /></clipPath><clipPath
       id="1815b1204b"><path
         d="m 418.90625,440.44922 h 8.41016 v 6.04687 h -8.41016 z m 0,0"
         clip-rule="nonzero"
         id="path13" /></clipPath><clipPath
       id="13f73a0011"><path
         d="m 423.10547,440.44922 c -2.32031,0 -4.19922,1.35547 -4.19922,3.02344 0,1.67187 1.87891,3.02343 4.19922,3.02343 2.3164,0 4.19531,-1.35156 4.19531,-3.02343 0,-1.66797 -1.87891,-3.02344 -4.19531,-3.02344 z m 0,0"
         clip-rule="nonzero"
         id="path14" /></clipPath><clipPath
       id="6264678bf0"><path
         d="M 0.90625,0.449219 H 9.316406 V 6.496094 H 0.90625 Z m 0,0"
         clip-rule="nonzero"
         id="path15" /></clipPath><clipPath
       id="b8e3ca6c43"><path
         d="m 5.105469,0.449219 c -2.320313,0 -4.199219,1.355469 -4.199219,3.023437 0,1.671875 1.878906,3.023438 4.199219,3.023438 2.316406,0 4.195312,-1.351563 4.195312,-3.023438 0,-1.667968 -1.878906,-3.023437 -4.195312,-3.023437 z m 0,0"
         clip-rule="nonzero"
         id="path16" /></clipPath><clipPath
       id="0b33aeac96"><rect
         x="0"
         width="10"
         y="0"
         height="7"
         id="rect16" /></clipPath><clipPath
       id="57063a5257"><path
         d="m 317.05078,481.08594 h 13.91797 v 11.67968 h -13.91797 z m 0,0"
         clip-rule="nonzero"
         id="path17" /></clipPath><clipPath
       id="1aa62119ae"><path
         d="m 323.99609,481.08594 c -3.83593,0 -6.94531,2.61718 -6.94531,5.83984 0,3.22656 3.10938,5.83984 6.94531,5.83984 3.83985,0 6.94922,-2.61328 6.94922,-5.83984 0,-3.22266 -3.10937,-5.83984 -6.94922,-5.83984 z m 0,0"
         clip-rule="nonzero"
         id="path18" /></clipPath><clipPath
       id="ba0cef3c05"><path
         d="M 0.0507812,0.0859375 H 13.960938 V 11.765625 H 0.0507812 Z m 0,0"
         clip-rule="nonzero"
         id="path19" /></clipPath><clipPath
       id="564879c839"><path
         d="m 6.996094,0.0859375 c -3.835938,0 -6.9453128,2.6171875 -6.9453128,5.8398435 0,3.226563 3.1093748,5.839844 6.9453128,5.839844 3.839844,0 6.949218,-2.613281 6.949218,-5.839844 0,-3.222656 -3.109374,-5.8398435 -6.949218,-5.8398435 z m 0,0"
         clip-rule="nonzero"
         id="path20" /></clipPath><clipPath
       id="239c40d67b"><rect
         x="0"
         width="14"
         y="0"
         height="12"
         id="rect20" /></clipPath><clipPath
       id="210054c0f6"><path
         d="m 516.38281,481.08594 h 13.91797 v 11.67968 h -13.91797 z m 0,0"
         clip-rule="nonzero"
         id="path21" /></clipPath><clipPath
       id="db5c3fd384"><path
         d="m 523.33203,481.08594 c -3.83594,0 -6.94922,2.61718 -6.94922,5.83984 0,3.22656 3.11328,5.83984 6.94922,5.83984 3.83594,0 6.94531,-2.61328 6.94531,-5.83984 0,-3.22266 -3.10937,-5.83984 -6.94531,-5.83984 z m 0,0"
         clip-rule="nonzero"
         id="path22" /></clipPath><clipPath
       id="1cccc8d77e"><path
         d="M 0.382812,0.0859375 H 14.300781 V 11.765625 H 0.382812 Z m 0,0"
         clip-rule="nonzero"
         id="path23" /></clipPath><clipPath
       id="0017b533eb"><path
         d="m 7.332031,0.0859375 c -3.835937,0 -6.949219,2.6171875 -6.949219,5.8398435 0,3.226563 3.113282,5.839844 6.949219,5.839844 3.835938,0 6.945313,-2.613281 6.945313,-5.839844 0,-3.222656 -3.109375,-5.8398435 -6.945313,-5.8398435 z m 0,0"
         clip-rule="nonzero"
         id="path24" /></clipPath><clipPath
       id="3de1340860"><rect
         x="0"
         width="15"
         y="0"
         height="12"
         id="rect24" /></clipPath><clipPath
       id="0032ccfe87"><path
         d="m 317.05078,429.15234 h 13.91797 v 11.67969 h -13.91797 z m 0,0"
         clip-rule="nonzero"
         id="path25" /></clipPath><clipPath
       id="f022e74d66"><path
         d="m 323.99609,429.15234 c -3.83593,0 -6.94531,2.61328 -6.94531,5.83985 0,3.22656 3.10938,5.83984 6.94531,5.83984 3.83985,0 6.94922,-2.61328 6.94922,-5.83984 0,-3.22657 -3.10937,-5.83985 -6.94922,-5.83985 z m 0,0"
         clip-rule="nonzero"
         id="path26" /></clipPath><clipPath
       id="164f67180c"><path
         d="M 0.0507812,0.152344 H 13.960938 V 11.832031 H 0.0507812 Z m 0,0"
         clip-rule="nonzero"
         id="path27" /></clipPath><clipPath
       id="513f034d1d"><path
         d="m 6.996094,0.152344 c -3.835938,0 -6.9453128,2.613281 -6.9453128,5.839844 0,3.226562 3.1093748,5.839843 6.9453128,5.839843 3.839844,0 6.949218,-2.613281 6.949218,-5.839843 0,-3.226563 -3.109374,-5.839844 -6.949218,-5.839844 z m 0,0"
         clip-rule="nonzero"
         id="path28" /></clipPath><clipPath
       id="240dd160ec"><rect
         x="0"
         width="14"
         y="0"
         height="12"
         id="rect28" /></clipPath><clipPath
       id="9d6f1ee5d5"><path
         d="m 516.38281,429.15234 h 13.91797 v 11.67969 h -13.91797 z m 0,0"
         clip-rule="nonzero"
         id="path29" /></clipPath><clipPath
       id="3e62781100"><path
         d="m 523.33203,429.15234 c -3.83594,0 -6.94922,2.61328 -6.94922,5.83985 0,3.22656 3.11328,5.83984 6.94922,5.83984 3.83594,0 6.94531,-2.61328 6.94531,-5.83984 0,-3.22657 -3.10937,-5.83985 -6.94531,-5.83985 z m 0,0"
         clip-rule="nonzero"
         id="path30" /></clipPath><clipPath
       id="4e6554b5fe"><path
         d="M 0.382812,0.152344 H 14.300781 V 11.832031 H 0.382812 Z m 0,0"
         clip-rule="nonzero"
         id="path31" /></clipPath><clipPath
       id="b5c0dd2462"><path
         d="m 7.332031,0.152344 c -3.835937,0 -6.949219,2.613281 -6.949219,5.839844 0,3.226562 3.113282,5.839843 6.949219,5.839843 3.835938,0 6.945313,-2.613281 6.945313,-5.839843 0,-3.226563 -3.109375,-5.839844 -6.945313,-5.839844 z m 0,0"
         clip-rule="nonzero"
         id="path32" /></clipPath><clipPath
       id="6853878bd8"><rect
         x="0"
         width="15"
         y="0"
         height="12"
         id="rect32" /></clipPath><clipPath
       id="62fb74cfb9"><path
         d="m 418.90625,492.38281 h 8.41016 v 6.05078 h -8.41016 z m 0,0"
         clip-rule="nonzero"
         id="path33" /></clipPath><clipPath
       id="dfc3062c69"><path
         d="m 423.10547,492.38281 c -2.32031,0 -4.19922,1.35547 -4.19922,3.02344 0,1.67187 1.87891,3.02734 4.19922,3.02734 2.3164,0 4.19531,-1.35547 4.19531,-3.02734 0,-1.66797 -1.87891,-3.02344 -4.19531,-3.02344 z m 0,0"
         clip-rule="nonzero"
         id="path34" /></clipPath><clipPath
       id="08c86ac918"><path
         d="M 0.90625,0.382812 H 9.316406 V 6.433594 H 0.90625 Z m 0,0"
         clip-rule="nonzero"
         id="path35" /></clipPath><clipPath
       id="88b48ca2aa"><path
         d="m 5.105469,0.382812 c -2.320313,0 -4.199219,1.355469 -4.199219,3.023438 0,1.671875 1.878906,3.027344 4.199219,3.027344 2.316406,0 4.195312,-1.355469 4.195312,-3.027344 0,-1.667969 -1.878906,-3.023438 -4.195312,-3.023438 z m 0,0"
         clip-rule="nonzero"
         id="path36" /></clipPath><clipPath
       id="15dc9f2090"><rect
         x="0"
         width="10"
         y="0"
         height="7"
         id="rect36" /></clipPath><clipPath
       id="ba25fb365d"><path
         d="m 418.90625,544.32031 h 8.41016 v 6.04688 h -8.41016 z m 0,0"
         clip-rule="nonzero"
         id="path37" /></clipPath><clipPath
       id="97ef215beb"><path
         d="m 423.10547,544.32031 c -2.32031,0 -4.19922,1.35156 -4.19922,3.02344 0,1.66797 1.87891,3.02344 4.19922,3.02344 2.3164,0 4.19531,-1.35547 4.19531,-3.02344 0,-1.67188 -1.87891,-3.02344 -4.19531,-3.02344 z m 0,0"
         clip-rule="nonzero"
         id="path38" /></clipPath><clipPath
       id="1401127512"><path
         d="M 0.90625,0.320312 H 9.316406 V 6.367188 H 0.90625 Z m 0,0"
         clip-rule="nonzero"
         id="path39" /></clipPath><clipPath
       id="0b24a174b9"><path
         d="m 5.105469,0.320312 c -2.320313,0 -4.199219,1.351563 -4.199219,3.023438 0,1.667969 1.878906,3.023438 4.199219,3.023438 2.316406,0 4.195312,-1.355469 4.195312,-3.023438 0,-1.671875 -1.878906,-3.023438 -4.195312,-3.023438 z m 0,0"
         clip-rule="nonzero"
         id="path40" /></clipPath><clipPath
       id="b5f885ac0e"><rect
         x="0"
         width="10"
         y="0"
         height="7"
         id="rect40" /></clipPath></defs><g
     id="layer1"
     transform="translate(-29.37012,-77.464593)"><g
       id="g2"
       transform="matrix(0.35277778,0,0,0.35277778,-20.733935,-43.295317)"><g
         id="g185"
         transform="matrix(1.3471819,0,0,1.3471819,-285.09783,-88.30251)"><g
           fill="#000000"
           fill-opacity="1"
           id="g46"
           transform="translate(-21.750002,0.75000145)"
           style="fill:#ffffff;fill-opacity:1"><g
             transform="translate(606.58498,533.87232)"
             id="g45"
             style="fill:#ffffff;fill-opacity:1"><g
               id="g44"
               style="fill:#ffffff;fill-opacity:1"><path
                 d="M 149.9375,-131.375 V 0 h -36.14062 v -15.625 c -5.05469,5.699219 -11.07813,10.054688 -18.07813,13.0625 -7,3.007812 -14.570312,4.515625 -22.703125,4.515625 -17.261719,0 -30.9375,-4.960937 -41.03125,-14.890625 C 21.890625,-22.875 16.84375,-37.609375 16.84375,-57.140625 V -131.375 H 54.9375 v 68.625 c 0,21.15625 8.875,31.734375 26.625,31.734375 9.113281,0 16.4375,-2.96875 21.96875,-8.90625 5.53906,-5.945313 8.3125,-14.78125 8.3125,-26.5 V -131.375 Z m 0,0"
                 id="path44"
                 style="fill:#ffffff;fill-opacity:1" /></g></g></g><g
           fill="#000000"
           fill-opacity="1"
           id="g49"
           transform="translate(-21.750002,0.75000145)"
           style="fill:#ffffff;fill-opacity:1"><g
             transform="translate(781.42134,533.87232)"
             id="g48"
             style="fill:#ffffff;fill-opacity:1"><g
               id="g47"
               style="fill:#ffffff;fill-opacity:1"><path
                 d="m 146.26562,-65.203125 c 0,0.492187 -0.24609,3.914063 -0.73437,10.265625 h -99.375 c 1.789062,8.136719 6.019531,14.570312 12.6875,19.296875 6.675781,4.71875 14.976562,7.078125 24.90625,7.078125 6.84375,0 12.910156,-1.015625 18.20313,-3.046875 5.28906,-2.039063 10.21093,-5.257813 14.76562,-9.65625 l 20.26562,21.96875 c -12.36718,14.167969 -30.43359,21.25 -54.20312,21.25 -14.8125,0 -27.917969,-2.890625 -39.3125,-8.671875 C 32.070312,-12.5 23.28125,-20.515625 17.09375,-30.765625 10.90625,-41.023438 7.8125,-52.664062 7.8125,-65.6875 c 0,-12.863281 3.050781,-24.460938 9.15625,-34.79688 6.101562,-10.33203 14.484375,-18.39062 25.140625,-24.17187 10.664063,-5.78125 22.59375,-8.67187 35.78125,-8.67187 12.863281,0 24.503905,2.77343 34.921875,8.31249 10.41406,5.53125 18.59375,13.46875 24.53125,23.8125 5.94531,10.335942 8.92187,22.335942 8.92187,36.000005 z M 78.140625,-104.51563 c -8.625,0 -15.871094,2.44532 -21.734375,7.32813 -5.867188,4.886719 -9.449219,11.5625 -10.75,20.03125 H 110.375 c -1.30469,-8.300781 -4.88672,-14.9375 -10.75,-19.90625 -5.855469,-4.96875 -13.015625,-7.45313 -21.484375,-7.45313 z m 0,0"
                 id="path46"
                 style="fill:#ffffff;fill-opacity:1" /></g></g></g><g
           fill="#000000"
           fill-opacity="1"
           id="g52"
           transform="translate(-21.750002,0.75000145)"
           style="fill:#ffffff;fill-opacity:1"><g
             transform="translate(942.58335,533.87232)"
             id="g51"
             style="fill:#ffffff;fill-opacity:1"><g
               id="g50"
               style="fill:#ffffff;fill-opacity:1"><path
                 d="m 17.578125,-181.1875 h 38.09375 V 0 h -38.09375 z m 0,0"
                 id="path49"
                 style="fill:#ffffff;fill-opacity:1" /></g></g></g><g
           fill="#000000"
           fill-opacity="1"
           id="g55"
           transform="translate(-21.750002,0.75000145)"
           style="fill:#ffffff;fill-opacity:1"><g
             transform="translate(1023.1644,533.87232)"
             id="g54"
             style="fill:#ffffff;fill-opacity:1"><g
               id="g53"
               style="fill:#ffffff;fill-opacity:1"><path
                 d="m 17.578125,-181.1875 h 38.09375 V 0 h -38.09375 z m 0,0"
                 id="path52"
                 style="fill:#ffffff;fill-opacity:1" /></g></g></g><g
           fill="#000000"
           fill-opacity="1"
           id="g58"
           transform="translate(-21.750002,0.75000145)"
           style="fill:#ffffff;fill-opacity:1"><g
             transform="translate(1103.7455,533.87232)"
             id="g57"
             style="fill:#ffffff;fill-opacity:1"><g
               id="g56"
               style="fill:#ffffff;fill-opacity:1"><path
                 d="m 17.578125,-131.375 h 38.09375 V 0 h -38.09375 z m 19.0625,-18.3125 c -7,0 -12.699219,-2.03125 -17.09375,-6.09375 -4.398437,-4.07031 -6.59375,-9.125 -6.59375,-15.15625 0,-6.01953 2.195313,-11.0625 6.59375,-15.125 4.394531,-4.07031 10.09375,-6.10937 17.09375,-6.10937 7,0 12.695313,1.95312 17.09375,5.85937 4.394531,3.90625 6.59375,8.79297 6.59375,14.65625 0,6.34375 -2.199219,11.59375 -6.59375,15.75 -4.398437,4.14844 -10.09375,6.21875 -17.09375,6.21875 z m 0,0"
                 id="path55"
                 style="fill:#ffffff;fill-opacity:1" /></g></g></g><g
           id="g59"
           transform="translate(1162.5766,534.62232)"
           style="fill:#ffffff;fill-opacity:1"><path
             id="path58"
             d="m 77.057637,-98.278844 20.171568,25.42564 45.130635,-58.521726 h -40.53223 z"
             style="fill:#ffffff;fill-opacity:1" /><path
             id="path174"
             d="M 2.686986,-131.37493 51.530736,-66.171807 0.98483753,-4.2099708e-4 H 42.483861 L 72.281712,-40.296807 101.09372,-4.2099708e-4 h 43.21875 L 93.530735,-67.156182 C 76.988554,-88.182462 61.276419,-109.83092 45.422337,-131.37493 Z"
             style="fill:#ffffff;fill-opacity:1" /></g><g
           id="g4"
           style="fill:#ffffff;fill-opacity:1;stroke:#ffffff"><path
             stroke-linecap="butt"
             transform="matrix(0.662983,-0.350648,0.350648,0.662983,320.2107,482.05322)"
             fill="none"
             stroke-linejoin="miter"
             d="M -0.00234056,6.499777 67.977852,6.501513"
             stroke="#08172e"
             stroke-width="13"
             stroke-opacity="1"
             stroke-miterlimit="4"
             id="path87"
             style="fill:#ffffff;fill-opacity:1;stroke:#ffffff" /><path
             stroke-linecap="butt"
             fill="none"
             stroke-linejoin="miter"
             d="M 0.00103101,6.500574 68.339721,6.499486"
             stroke="#08172e"
             stroke-width="13"
             stroke-opacity="1"
             stroke-miterlimit="4"
             id="path88"
             transform="matrix(-0.648304,-0.377096,0.377096,-0.648304,522.3462,490.64443)"
             style="fill:#ffffff;fill-opacity:1;stroke:#ffffff" /><g
             clip-path="url(#57063a5257)"
             id="g94"
             style="fill:#ffffff;fill-opacity:1;stroke:#ffffff"><g
               clip-path="url(#1aa62119ae)"
               id="g93"
               style="fill:#ffffff;fill-opacity:1;stroke:#ffffff"><g
                 transform="translate(317,481)"
                 id="g92"
                 style="fill:#ffffff;fill-opacity:1;stroke:#ffffff"><g
                   clip-path="url(#239c40d67b)"
                   id="g91"
                   style="fill:#ffffff;fill-opacity:1;stroke:#ffffff"><g
                     clip-path="url(#ba0cef3c05)"
                     id="g90"
                     style="fill:#ffffff;fill-opacity:1;stroke:#ffffff"><g
                       clip-path="url(#564879c839)"
                       id="g89"
                       style="fill:#ffffff;fill-opacity:1;stroke:#ffffff"><path
                         fill="#000000"
                         d="M 0.0507812,0.0859375 H 13.921875 V 11.765625 H 0.0507812 Z m 0,0"
                         fill-opacity="1"
                         fill-rule="nonzero"
                         id="path89"
                         style="fill:#ffffff;fill-opacity:1;stroke:#ffffff" /></g></g></g></g></g></g><g
             clip-path="url(#210054c0f6)"
             id="g100"
             style="fill:#ffffff;fill-opacity:1;stroke:#ffffff"><g
               clip-path="url(#db5c3fd384)"
               id="g99"
               style="fill:#ffffff;fill-opacity:1;stroke:#ffffff"><g
                 transform="translate(516,481)"
                 id="g98"
                 style="fill:#ffffff;fill-opacity:1;stroke:#ffffff"><g
                   clip-path="url(#3de1340860)"
                   id="g97"
                   style="fill:#ffffff;fill-opacity:1;stroke:#ffffff"><g
                     clip-path="url(#1cccc8d77e)"
                     id="g96"
                     style="fill:#ffffff;fill-opacity:1;stroke:#ffffff"><g
                       clip-path="url(#0017b533eb)"
                       id="g95"
                       style="fill:#ffffff;fill-opacity:1;stroke:#ffffff"><path
                         fill="#000000"
                         d="M 0.382812,0.0859375 H 14.253906 V 11.765625 H 0.382812 Z m 0,0"
                         fill-opacity="1"
                         fill-rule="nonzero"
                         id="path94"
                         style="fill:#ffffff;fill-opacity:1;stroke:#ffffff" /></g></g></g></g></g></g><path
             stroke-linecap="butt"
             transform="matrix(-0.651538,0.371481,-0.371481,-0.651538,527.23428,491.78301)"
             fill="none"
             stroke-linejoin="miter"
             d="M -0.00151351,6.500886 156.10338,6.497587"
             stroke="#08172e"
             stroke-width="13"
             stroke-opacity="1"
             stroke-miterlimit="4"
             id="path100"
             style="fill:#ffffff;fill-opacity:1;stroke:#ffffff" /><path
             stroke-linecap="butt"
             transform="matrix(0.649644,0.374783,-0.374783,0.649644,324.94748,483.25776)"
             fill="none"
             stroke-linejoin="miter"
             d="M 3.96281e-4,6.499811 154.79707,6.500491"
             stroke="#08172e"
             stroke-width="13"
             stroke-opacity="1"
             stroke-miterlimit="4"
             id="path101"
             style="fill:#ffffff;fill-opacity:1;stroke:#ffffff" /><g
             clip-path="url(#62fb74cfb9)"
             id="g121"
             style="fill:#ffffff;fill-opacity:1;stroke:#ffffff"><g
               clip-path="url(#dfc3062c69)"
               id="g120"
               style="fill:#ffffff;fill-opacity:1;stroke:#ffffff"><g
                 transform="translate(418,492)"
                 id="g119"
                 style="fill:#ffffff;fill-opacity:1;stroke:#ffffff"><g
                   clip-path="url(#15dc9f2090)"
                   id="g118"
                   style="fill:#ffffff;fill-opacity:1;stroke:#ffffff"><g
                     clip-path="url(#08c86ac918)"
                     id="g117"
                     style="fill:#ffffff;fill-opacity:1;stroke:#ffffff"><g
                       clip-path="url(#88b48ca2aa)"
                       id="g116"
                       style="fill:#ffffff;fill-opacity:1;stroke:#ffffff"><path
                         fill="#6c7380"
                         d="M 0.90625,0.382812 H 9.292969 V 6.433594 H 0.90625 Z m 0,0"
                         fill-opacity="1"
                         fill-rule="nonzero"
                         id="path115"
                         style="fill:#ffffff;fill-opacity:1;stroke:#ffffff" /></g></g></g></g></g></g><g
             clip-path="url(#ba25fb365d)"
             id="g127"
             style="fill:#ffffff;fill-opacity:1;stroke:#ffffff"><g
               clip-path="url(#97ef215beb)"
               id="g126"
               style="fill:#ffffff;fill-opacity:1;stroke:#ffffff"><g
                 transform="translate(418,544)"
                 id="g125"
                 style="fill:#ffffff;fill-opacity:1;stroke:#ffffff"><g
                   clip-path="url(#b5f885ac0e)"
                   id="g124"
                   style="fill:#ffffff;fill-opacity:1;stroke:#ffffff"><g
                     clip-path="url(#1401127512)"
                     id="g123"
                     style="fill:#ffffff;fill-opacity:1;stroke:#ffffff"><g
                       clip-path="url(#0b24a174b9)"
                       id="g122"
                       style="fill:#ffffff;fill-opacity:1;stroke:#ffffff"><path
                         fill="#000000"
                         d="M 0.90625,0.320312 H 9.292969 V 6.367188 H 0.90625 Z m 0,0"
                         fill-opacity="1"
                         fill-rule="nonzero"
                         id="path121"
                         style="fill:#ffffff;fill-opacity:1;stroke:#ffffff" /></g></g></g></g></g></g></g><g
           id="g5"
           style="fill:#ffffff;stroke:#ffffff"><path
             stroke-linecap="butt"
             transform="matrix(0.661696,-0.35307,0.35307,0.661696,320.19479,430.12615)"
             fill="none"
             stroke-linejoin="miter"
             d="m -8.52264e-4,6.497439 61.267460264,0.00317 1.973682,1.019e-4 0.585795,3.03e-5 9.089729,4.696e-4"
             stroke="#6c7380"
             stroke-width="13"
             stroke-opacity="1"
             stroke-miterlimit="4"
             id="path43"
             style="fill:#ffffff;stroke:#ffffff" /><path
             stroke-linecap="butt"
             transform="matrix(-0.648028,-0.37757,0.37757,-0.648028,522.34462,438.70824)"
             fill="none"
             stroke-linejoin="miter"
             d="M 0.00221955,6.498644 68.365232,6.499685"
             stroke="#6c7380"
             stroke-width="13"
             stroke-opacity="1"
             stroke-miterlimit="4"
             id="path61"
             style="fill:#ffffff;stroke:#ffffff" /><path
             stroke-linecap="butt"
             transform="matrix(-0.651538,0.371481,-0.371481,-0.651538,527.23428,439.84821)"
             fill="none"
             stroke-linejoin="miter"
             d="M -7.18619e-4,6.499492 156.10159,6.500718"
             stroke="#6c7380"
             stroke-width="13"
             stroke-opacity="1"
             stroke-miterlimit="4"
             id="path102"
             style="fill:#ffffff;stroke:#ffffff" /><path
             stroke-linecap="butt"
             transform="matrix(0.649644,0.374783,-0.374783,0.649644,324.94748,431.32298)"
             fill="none"
             stroke-linejoin="miter"
             d="M 0.00118225,6.501174 154.79525,6.497342"
             stroke="#6c7380"
             stroke-width="13"
             stroke-opacity="1"
             stroke-miterlimit="4"
             id="path103"
             style="fill:#ffffff;stroke:#ffffff" /><g
             clip-path="url(#0032ccfe87)"
             id="g109"
             style="fill:#ffffff;stroke:#ffffff"><g
               clip-path="url(#f022e74d66)"
               id="g108"
               style="fill:#ffffff;stroke:#ffffff"><g
                 transform="translate(317,429)"
                 id="g107"
                 style="fill:#ffffff;stroke:#ffffff"><g
                   clip-path="url(#240dd160ec)"
                   id="g106"
                   style="fill:#ffffff;stroke:#ffffff"><g
                     clip-path="url(#164f67180c)"
                     id="g105"
                     style="fill:#ffffff;stroke:#ffffff"><g
                       clip-path="url(#513f034d1d)"
                       id="g104"
                       style="fill:#ffffff;stroke:#ffffff"><path
                         fill="#6c7380"
                         d="M 0.0507812,0.152344 H 13.921875 V 11.832031 H 0.0507812 Z m 0,0"
                         fill-opacity="1"
                         fill-rule="nonzero"
                         id="path104"
                         style="fill:#ffffff;stroke:#ffffff" /></g></g></g></g></g></g><g
             clip-path="url(#9d6f1ee5d5)"
             id="g115"
             style="fill:#ffffff;stroke:#ffffff"><g
               clip-path="url(#3e62781100)"
               id="g114"
               style="fill:#ffffff;stroke:#ffffff"><g
                 transform="translate(516,429)"
                 id="g113"
                 style="fill:#ffffff;stroke:#ffffff"><g
                   clip-path="url(#6853878bd8)"
                   id="g112"
                   style="fill:#ffffff;stroke:#ffffff"><g
                     clip-path="url(#4e6554b5fe)"
                     id="g111"
                     style="fill:#ffffff;stroke:#ffffff"><g
                       clip-path="url(#b5c0dd2462)"
                       id="g110"
                       style="fill:#ffffff;stroke:#ffffff"><path
                         fill="#6c7380"
                         d="M 0.382812,0.152344 H 14.253906 V 11.832031 H 0.382812 Z m 0,0"
                         fill-opacity="1"
                         fill-rule="nonzero"
                         id="path109"
                         style="fill:#ffffff;stroke:#ffffff" /></g></g></g></g></g></g></g><g
           id="g6"
           style="fill:#ffffff;stroke:#ffffff"><g
             id="g184"
             style="fill:#ffffff;stroke:#ffffff"><path
               stroke-linecap="butt"
               transform="matrix(0.651538,-0.371481,0.371481,0.651538,320.0752,378.25775)"
               fill="none"
               stroke-linejoin="miter"
               d="M -0.00142612,6.498323 156.10088,6.499549"
               stroke="#fc4c0d"
               stroke-width="13"
               stroke-opacity="1"
               stroke-miterlimit="4"
               id="path42"
               style="display:inline;fill:#ffffff;stroke:#ffffff" /><path
               stroke-linecap="butt"
               transform="matrix(-0.649644,-0.374783,0.374783,-0.649644,522.35928,386.78303)"
               fill="none"
               stroke-linejoin="miter"
               d="M -5.68608e-4,6.503018 154.7935,6.499186"
               stroke="#fc4c0d"
               stroke-width="13"
               stroke-opacity="1"
               stroke-miterlimit="4"
               id="path62"
               style="display:inline;fill:#ffffff;stroke:#ffffff" /><g
               clip-path="url(#42c7b661bc)"
               id="g68"
               style="display:inline;fill:#ffffff;stroke:#ffffff"><g
                 clip-path="url(#2e774e1bb2)"
                 id="g67"
                 style="fill:#ffffff;stroke:#ffffff"><g
                   transform="translate(420,319)"
                   id="g66"
                   style="fill:#ffffff;stroke:#ffffff"><g
                     clip-path="url(#9872908dfa)"
                     id="g65"
                     style="fill:#ffffff;stroke:#ffffff"><g
                       clip-path="url(#594c2671c3)"
                       id="g64"
                       style="fill:#ffffff;stroke:#ffffff"><g
                         clip-path="url(#b7e992c3a7)"
                         id="g63"
                         style="fill:#ffffff;stroke:#ffffff"><path
                           fill="#fc4c0d"
                           d="M 0.0117188,0.640625 H 8.398438 V 6.6875 H 0.0117188 Z m 0,0"
                           fill-opacity="1"
                           fill-rule="nonzero"
                           id="path63"
                           style="fill:#ffffff;stroke:#ffffff" /></g></g></g></g></g></g><g
               clip-path="url(#363e5f3491)"
               id="g74"
               style="display:inline;fill:#ffffff;stroke:#ffffff"><g
                 clip-path="url(#7600b9155b)"
                 id="g73"
                 style="fill:#ffffff;stroke:#ffffff"><g
                   transform="translate(317,377)"
                   id="g72"
                   style="fill:#ffffff;stroke:#ffffff"><g
                     clip-path="url(#294761ec06)"
                     id="g71"
                     style="fill:#ffffff;stroke:#ffffff"><g
                       clip-path="url(#e7b5a8bcc5)"
                       id="g70"
                       style="fill:#ffffff;stroke:#ffffff"><g
                         clip-path="url(#6a6c861897)"
                         id="g69"
                         style="fill:#ffffff;stroke:#ffffff"><path
                           fill="#fc4c0d"
                           d="M 0.0507812,0.21875 H 13.921875 V 11.898438 H 0.0507812 Z m 0,0"
                           fill-opacity="1"
                           fill-rule="nonzero"
                           id="path68"
                           style="fill:#ffffff;stroke:#ffffff" /></g></g></g></g></g></g><g
               clip-path="url(#9ab9f0cb2e)"
               id="g80"
               style="display:inline;fill:#ffffff;stroke:#ffffff"><g
                 clip-path="url(#d2515f5a9a)"
                 id="g79"
                 style="fill:#ffffff;stroke:#ffffff"><g
                   transform="translate(516,377)"
                   id="g78"
                   style="fill:#ffffff;stroke:#ffffff"><g
                     clip-path="url(#cfd81cc7ef)"
                     id="g77"
                     style="fill:#ffffff;stroke:#ffffff"><g
                       clip-path="url(#23826a9c17)"
                       id="g76"
                       style="fill:#ffffff;stroke:#ffffff"><g
                         clip-path="url(#35c9fe48d9)"
                         id="g75"
                         style="fill:#ffffff;stroke:#ffffff"><path
                           fill="#fc4c0d"
                           d="M 0.382812,0.21875 H 14.253906 V 11.898438 H 0.382812 Z m 0,0"
                           fill-opacity="1"
                           fill-rule="nonzero"
                           id="path74"
                           style="fill:#ffffff;stroke:#ffffff" /></g></g></g></g></g></g><path
               stroke-linecap="butt"
               transform="matrix(-0.651538,0.371481,-0.371481,-0.651538,527.23428,387.91342)"
               fill="none"
               stroke-linejoin="miter"
               d="M 7.46915e-5,6.498101 156.10238,6.499326"
               stroke="#fc4c0d"
               stroke-width="13"
               stroke-opacity="1"
               stroke-miterlimit="4"
               id="path80"
               style="display:inline;fill:#ffffff;stroke:#ffffff" /><path
               stroke-linecap="butt"
               fill="none"
               stroke-linejoin="miter"
               d="M -5.92864e-4,6.498097 154.79608,6.498776"
               stroke="#fc4c0d"
               stroke-width="13"
               stroke-opacity="1"
               stroke-miterlimit="4"
               id="path81"
               transform="matrix(0.649644,0.374783,-0.374783,0.649644,324.94748,379.38815)"
               style="display:inline;fill:#ffffff;stroke:#ffffff" /><g
               clip-path="url(#1815b1204b)"
               id="g87"
               style="fill:#ffffff;stroke:#ffffff"><g
                 clip-path="url(#13f73a0011)"
                 id="g86"
                 style="fill:#ffffff;stroke:#ffffff"><g
                   transform="translate(418,440)"
                   id="g85"
                   style="fill:#ffffff;stroke:#ffffff"><g
                     clip-path="url(#0b33aeac96)"
                     id="g84"
                     style="fill:#ffffff;stroke:#ffffff"><g
                       clip-path="url(#6264678bf0)"
                       id="g83"
                       style="fill:#ffffff;stroke:#ffffff"><g
                         clip-path="url(#b8e3ca6c43)"
                         id="g82"
                         style="fill:#ffffff;stroke:#ffffff"><path
                           fill="#fc4c0d"
                           d="M 0.90625,0.449219 H 9.292969 V 6.496094 H 0.90625 Z m 0,0"
                           fill-opacity="1"
                           fill-rule="nonzero"
                           id="path82"
                           style="fill:#ffffff;stroke:#ffffff" /></g></g></g></g></g></g><path
               style="opacity:1;fill:#ffffff;fill-opacity:1;stroke:#ffffff;stroke-width:0;stroke-dasharray:none;stroke-opacity:1"
               d="m 358.16028,409.81447 10.03378,5.78358 -4.93409,2.62208 -9.93563,-5.81972 z m 9.96657,8.37555 -8.24944,-6.14618 z"
               id="path184" /><path
               style="fill:#ffffff;fill-opacity:1;stroke:#ffffff;stroke-width:0;stroke-dasharray:none;stroke-opacity:1"
               d="m 358.37642,461.86621 10.00449,5.78358 -4.96339,2.59864 -9.93563,-5.81972 z m 11.72439,7.9068 -10.06585,-5.70087 z"
               id="path184-0" /><path
               style="fill:#ffffff;fill-opacity:1;stroke:#ffffff;stroke-width:0;stroke-dasharray:none;stroke-opacity:1"
               d="m 490.51568,408.85047 -9.89609,5.64295 4.78175,2.69239 9.6661,-5.70253 z m -9.82888,8.23492 8.24944,-6.14618 z"
               id="path184-8" /><path
               style="fill:#ffffff;fill-opacity:1;stroke:#ffffff;stroke-width:0;stroke-dasharray:none;stroke-opacity:1"
               d="m 490.46942,460.81148 -9.89609,5.64295 4.78175,2.69239 9.6661,-5.70253 z m -9.82888,8.23492 8.24944,-6.14618 z"
               id="path184-8-8" /></g></g></g></g></g></svg>
